<svg width="94" height="70" viewBox="0 0 94 70" fill="none" xmlns="http://www.w3.org/2000/svg">
<path d="M87.1473 11.6667H70.23L66.6247 2.27103C66.1006 0.904867 64.7643 0 63.2713 0H29.845C28.352 0 27.0157 0.904867 26.4916 2.27103L22.8863 11.6667H5.96899C2.67244 11.6667 0 14.2784 0 17.5V64.1667C0 67.3883 2.67244 70 5.96899 70H87.1473C90.4439 70 93.1163 67.3883 93.1163 64.1667V17.5C93.1163 14.2784 90.4439 11.6667 87.1473 11.6667ZM46.5581 18.6667C59.0651 18.6667 69.2403 28.6106 69.2403 40.8333C69.2403 53.056 59.0651 63 46.5581 63C34.0512 63 23.876 53.056 23.876 40.8333C23.876 28.6106 34.0512 18.6667 46.5581 18.6667Z" fill="#2B2B2B"/>
<path d="M31.0388 40.8333C31.0388 49.1962 38.0008 56 46.5582 56C55.1156 56 62.0776 49.1962 62.0776 40.8333C62.0776 32.4704 55.1156 25.6666 46.5582 25.6666C38.0008 25.6666 31.0388 32.4704 31.0388 40.8333Z" fill="#2B2B2B"/>
</svg>
