<svg width="39" height="39" viewBox="0 0 39 39" fill="none" xmlns="http://www.w3.org/2000/svg">
<path d="M31.6875 9.14062H27.1378L24.8811 5.7557C24.8254 5.67223 24.7501 5.60379 24.6616 5.55646C24.5732 5.50912 24.4744 5.48436 24.3741 5.48438H14.6241C14.5238 5.48435 14.425 5.5091 14.3365 5.55644C14.2481 5.60377 14.1727 5.67222 14.1171 5.7557L11.8606 9.14062H7.3125C6.50469 9.14151 5.73022 9.46281 5.15901 10.034C4.58781 10.6052 4.26651 11.3797 4.26562 12.1875V29.25C4.26651 30.0578 4.58781 30.8323 5.15901 31.4035C5.73022 31.9747 6.50469 32.296 7.3125 32.2969H31.6875C32.4953 32.296 33.2698 31.9747 33.841 31.4035C34.4122 30.8323 34.7335 30.0578 34.7344 29.25V12.1875C34.7335 11.3797 34.4122 10.6052 33.841 10.034C33.2698 9.46281 32.4953 9.14151 31.6875 9.14062ZM33.5156 29.25C33.5151 29.7347 33.3223 30.1994 32.9796 30.5421C32.6369 30.8848 32.1722 31.0776 31.6875 31.0781H7.3125C6.82781 31.0776 6.36313 30.8848 6.0204 30.5421C5.67767 30.1994 5.4849 29.7347 5.48438 29.25V12.1875C5.4849 11.7028 5.67767 11.2381 6.0204 10.8954C6.36313 10.5527 6.82781 10.3599 7.3125 10.3594H12.1866C12.2869 10.3594 12.3857 10.3346 12.4741 10.2873C12.5626 10.24 12.6379 10.1715 12.6936 10.0881L14.9503 6.70312H24.0481L26.3046 10.0881C26.3602 10.1715 26.4356 10.24 26.524 10.2873C26.6125 10.3346 26.7113 10.3594 26.8116 10.3594H31.6875C32.1722 10.3599 32.6369 10.5527 32.9796 10.8954C33.3223 11.2381 33.5151 11.7028 33.5156 12.1875V29.25ZM19.5 14.0156C18.2948 14.0156 17.1166 14.373 16.1145 15.0426C15.1124 15.7122 14.3313 16.6639 13.8701 17.7774C13.4089 18.8909 13.2882 20.1161 13.5233 21.2982C13.7585 22.4803 14.3388 23.5661 15.1911 24.4183C16.0433 25.2705 17.1291 25.8509 18.3112 26.086C19.4932 26.3212 20.7185 26.2005 21.832 25.7393C22.9455 25.278 23.8972 24.497 24.5668 23.4949C25.2364 22.4928 25.5938 21.3146 25.5938 20.1094C25.5919 18.4938 24.9493 16.9449 23.8069 15.8025C22.6645 14.6601 21.1156 14.0175 19.5 14.0156ZM19.5 24.9844C18.5358 24.9844 17.5933 24.6985 16.7916 24.1628C15.9899 23.6271 15.3651 22.8657 14.9961 21.975C14.6271 21.0842 14.5306 20.104 14.7187 19.1583C14.9068 18.2127 15.3711 17.344 16.0529 16.6622C16.7346 15.9804 17.6033 15.5161 18.5489 15.328C19.4946 15.1399 20.4748 15.2365 21.3656 15.6055C22.2564 15.9744 23.0177 16.5993 23.5534 17.401C24.0891 18.2027 24.375 19.1452 24.375 20.1094C24.3735 21.4018 23.8594 22.641 22.9455 23.5549C22.0316 24.4688 20.7925 24.9829 19.5 24.9844Z" fill="#3F3F3F"/>
</svg>
