<svg width="35" height="34" viewBox="0 0 35 34" fill="none" xmlns="http://www.w3.org/2000/svg">
<path d="M28.4375 4.78125H6.5625C6.12752 4.78171 5.7105 4.94977 5.40292 5.24855C5.09535 5.54734 4.92235 5.95245 4.92188 6.375V27.625C4.92235 28.0475 5.09535 28.4527 5.40292 28.7514C5.7105 29.0502 6.12752 29.2183 6.5625 29.2188H28.4375C28.8725 29.2183 29.2895 29.0502 29.5971 28.7514C29.9047 28.4527 30.0777 28.0475 30.0781 27.625V6.375C30.0777 5.95245 29.9047 5.54734 29.5971 5.24855C29.2895 4.94977 28.8725 4.78171 28.4375 4.78125ZM28.9844 27.625C28.9842 27.7659 28.9266 27.9009 28.824 28.0005C28.7215 28.1001 28.5825 28.1561 28.4375 28.1562H6.5625C6.4175 28.1561 6.27849 28.1001 6.17596 28.0005C6.07343 27.9009 6.01577 27.7659 6.01562 27.625V23.5949L10.5509 19.1895C10.6535 19.09 10.7925 19.034 10.9376 19.034C11.0826 19.034 11.2217 19.09 11.3243 19.1895L14.1526 21.9369C14.4604 22.2354 14.8777 22.4031 15.3126 22.4031C15.7476 22.4031 16.1648 22.2354 16.4727 21.9369L22.5821 16.0019C22.6847 15.9023 22.8238 15.8464 22.9688 15.8464C23.1138 15.8464 23.2529 15.9023 23.3555 16.0019L28.9844 21.4699V27.625ZM28.9844 19.9676L24.1288 15.2507C23.8211 14.9519 23.4039 14.784 22.9688 14.784C22.5336 14.784 22.1164 14.9519 21.8087 15.2507L15.6993 21.1857C15.5966 21.2851 15.4575 21.3409 15.3126 21.3409C15.1676 21.3409 15.0285 21.2851 14.9259 21.1857L12.0976 18.4382C11.7897 18.1397 11.3725 17.972 10.9375 17.972C10.5025 17.972 10.0853 18.1397 9.77744 18.4382L6.01562 22.0926V6.375C6.01577 6.23415 6.07343 6.0991 6.17596 5.9995C6.27849 5.89991 6.4175 5.84389 6.5625 5.84375H28.4375C28.5825 5.84389 28.7215 5.89991 28.824 5.9995C28.9266 6.0991 28.9842 6.23415 28.9844 6.375V19.9676ZM14.7658 12.2188V12.219C14.7657 12.5008 14.6505 12.7711 14.4453 12.9703C14.2401 13.1696 13.9619 13.2815 13.6718 13.2815C13.3817 13.2815 13.1035 13.1695 12.8984 12.9703C12.6932 12.771 12.578 12.5007 12.578 12.2189C12.578 11.9371 12.6932 11.6668 12.8984 11.4675C13.1035 11.2682 13.3817 11.1563 13.6718 11.1562C13.9619 11.1562 14.2401 11.2682 14.4453 11.4674C14.6505 11.6667 14.7657 11.9369 14.7658 12.2188Z" fill="#3F3F3F"/>
</svg>
