<svg width="122" height="55" viewBox="0 0 122 55" fill="none" xmlns="http://www.w3.org/2000/svg">
<path d="M19.7 13.6V22H18.104L13.916 16.9V22H11.996V13.6H13.604L17.78 18.7V13.6H19.7ZM28.1914 20.44V22H21.6874V13.6H28.0354V15.16H23.6194V16.984H27.5194V18.496H23.6194V20.44H28.1914ZM37.3822 22L37.3702 16.96L34.8982 21.112H34.0222L31.5622 17.068V22H29.7382V13.6H31.3462L34.4902 18.82L37.5862 13.6H39.1822L39.2062 22H37.3822ZM46.7311 20.2H42.8311L42.0871 22H40.0951L43.8391 13.6H45.7591L49.5151 22H47.4751L46.7311 20.2ZM46.1191 18.724L44.7871 15.508L43.4551 18.724H46.1191ZM58.0906 13.6V22H56.4946L52.3066 16.9V22H50.3866V13.6H51.9946L56.1706 18.7V13.6H58.0906ZM61.626 22.144C61.058 22.144 60.534 22.04 60.054 21.832C59.582 21.616 59.194 21.312 58.89 20.92L59.97 19.624C60.426 20.24 60.946 20.548 61.53 20.548C62.322 20.548 62.718 20.084 62.718 19.156V15.16H59.766V13.6H64.65V19.048C64.65 20.08 64.394 20.856 63.882 21.376C63.37 21.888 62.618 22.144 61.626 22.144ZM71.9264 20.2H68.0264L67.2824 22H65.2904L69.0344 13.6H70.9544L74.7104 22H72.6704L71.9264 20.2ZM71.3144 18.724L69.9824 15.508L68.6504 18.724H71.3144Z" fill="white"/>
<path d="M15.632 34.6C16.376 34.6 17.02 34.724 17.564 34.972C18.116 35.22 18.54 35.572 18.836 36.028C19.132 36.484 19.28 37.024 19.28 37.648C19.28 38.264 19.132 38.804 18.836 39.268C18.54 39.724 18.116 40.076 17.564 40.324C17.02 40.564 16.376 40.684 15.632 40.684H13.94V43H11.996V34.6H15.632ZM15.524 39.1C16.108 39.1 16.552 38.976 16.856 38.728C17.16 38.472 17.312 38.112 17.312 37.648C17.312 37.176 17.16 36.816 16.856 36.568C16.552 36.312 16.108 36.184 15.524 36.184H13.94V39.1H15.524ZM28.3719 34.6V43H26.4279V39.556H22.6119V43H20.6679V34.6H22.6119V37.912H26.4279V34.6H28.3719ZM34.4273 43.144C33.5553 43.144 32.7673 42.956 32.0633 42.58C31.3673 42.204 30.8193 41.688 30.4193 41.032C30.0273 40.368 29.8313 39.624 29.8313 38.8C29.8313 37.976 30.0273 37.236 30.4193 36.58C30.8193 35.916 31.3673 35.396 32.0633 35.02C32.7673 34.644 33.5553 34.456 34.4273 34.456C35.2993 34.456 36.0833 34.644 36.7793 35.02C37.4753 35.396 38.0233 35.916 38.4233 36.58C38.8233 37.236 39.0233 37.976 39.0233 38.8C39.0233 39.624 38.8233 40.368 38.4233 41.032C38.0233 41.688 37.4753 42.204 36.7793 42.58C36.0833 42.956 35.2993 43.144 34.4273 43.144ZM34.4273 41.488C34.9233 41.488 35.3713 41.376 35.7713 41.152C36.1713 40.92 36.4833 40.6 36.7073 40.192C36.9393 39.784 37.0553 39.32 37.0553 38.8C37.0553 38.28 36.9393 37.816 36.7073 37.408C36.4833 37 36.1713 36.684 35.7713 36.46C35.3713 36.228 34.9233 36.112 34.4273 36.112C33.9313 36.112 33.4833 36.228 33.0833 36.46C32.6833 36.684 32.3673 37 32.1353 37.408C31.9113 37.816 31.7993 38.28 31.7993 38.8C31.7993 39.32 31.9113 39.784 32.1353 40.192C32.3673 40.6 32.6833 40.92 33.0833 41.152C33.4833 41.376 33.9313 41.488 34.4273 41.488ZM42.1071 36.184H39.4191V34.6H46.7391V36.184H44.0511V43H42.1071V36.184ZM51.7359 43.144C50.8639 43.144 50.0759 42.956 49.3719 42.58C48.6759 42.204 48.1279 41.688 47.7279 41.032C47.3359 40.368 47.1399 39.624 47.1399 38.8C47.1399 37.976 47.3359 37.236 47.7279 36.58C48.1279 35.916 48.6759 35.396 49.3719 35.02C50.0759 34.644 50.8639 34.456 51.7359 34.456C52.6079 34.456 53.3919 34.644 54.0879 35.02C54.7839 35.396 55.3319 35.916 55.7319 36.58C56.1319 37.236 56.3319 37.976 56.3319 38.8C56.3319 39.624 56.1319 40.368 55.7319 41.032C55.3319 41.688 54.7839 42.204 54.0879 42.58C53.3919 42.956 52.6079 43.144 51.7359 43.144ZM51.7359 41.488C52.2319 41.488 52.6799 41.376 53.0799 41.152C53.4799 40.92 53.7919 40.6 54.0159 40.192C54.2479 39.784 54.3639 39.32 54.3639 38.8C54.3639 38.28 54.2479 37.816 54.0159 37.408C53.7919 37 53.4799 36.684 53.0799 36.46C52.6799 36.228 52.2319 36.112 51.7359 36.112C51.2399 36.112 50.7919 36.228 50.3919 36.46C49.9919 36.684 49.6759 37 49.4439 37.408C49.2199 37.816 49.1079 38.28 49.1079 38.8C49.1079 39.32 49.2199 39.784 49.4439 40.192C49.6759 40.6 49.9919 40.92 50.3919 41.152C50.7919 41.376 51.2399 41.488 51.7359 41.488ZM63.4689 38.668H65.2449V42.076C64.7889 42.42 64.2609 42.684 63.6609 42.868C63.0609 43.052 62.4569 43.144 61.8489 43.144C60.9769 43.144 60.1929 42.96 59.4969 42.592C58.8009 42.216 58.2529 41.7 57.8529 41.044C57.4609 40.38 57.2649 39.632 57.2649 38.8C57.2649 37.968 57.4609 37.224 57.8529 36.568C58.2529 35.904 58.8049 35.388 59.5089 35.02C60.2129 34.644 61.0049 34.456 61.8849 34.456C62.6209 34.456 63.2889 34.58 63.8889 34.828C64.4889 35.076 64.9929 35.436 65.4009 35.908L64.1529 37.06C63.5529 36.428 62.8289 36.112 61.9809 36.112C61.4449 36.112 60.9689 36.224 60.5529 36.448C60.1369 36.672 59.8129 36.988 59.5809 37.396C59.3489 37.804 59.2329 38.272 59.2329 38.8C59.2329 39.32 59.3489 39.784 59.5809 40.192C59.8129 40.6 60.1329 40.92 60.5409 41.152C60.9569 41.376 61.4289 41.488 61.9569 41.488C62.5169 41.488 63.0209 41.368 63.4689 41.128V38.668ZM72.4027 43L70.7827 40.66H70.6867H68.9947V43H67.0507V34.6H70.6867C71.4307 34.6 72.0747 34.724 72.6187 34.972C73.1707 35.22 73.5947 35.572 73.8907 36.028C74.1867 36.484 74.3347 37.024 74.3347 37.648C74.3347 38.272 74.1827 38.812 73.8787 39.268C73.5827 39.716 73.1587 40.06 72.6067 40.3L74.4907 43H72.4027ZM72.3667 37.648C72.3667 37.176 72.2147 36.816 71.9107 36.568C71.6067 36.312 71.1627 36.184 70.5787 36.184H68.9947V39.112H70.5787C71.1627 39.112 71.6067 38.984 71.9107 38.728C72.2147 38.472 72.3667 38.112 72.3667 37.648ZM81.4069 41.2H77.5069L76.7629 43H74.7709L78.5149 34.6H80.4349L84.1909 43H82.1509L81.4069 41.2ZM80.7949 39.724L79.4629 36.508L78.1309 39.724H80.7949ZM88.6984 34.6C89.4424 34.6 90.0864 34.724 90.6304 34.972C91.1824 35.22 91.6064 35.572 91.9024 36.028C92.1984 36.484 92.3464 37.024 92.3464 37.648C92.3464 38.264 92.1984 38.804 91.9024 39.268C91.6064 39.724 91.1824 40.076 90.6304 40.324C90.0864 40.564 89.4424 40.684 88.6984 40.684H87.0064V43H85.0624V34.6H88.6984ZM88.5904 39.1C89.1744 39.1 89.6184 38.976 89.9224 38.728C90.2264 38.472 90.3784 38.112 90.3784 37.648C90.3784 37.176 90.2264 36.816 89.9224 36.568C89.6184 36.312 89.1744 36.184 88.5904 36.184H87.0064V39.1H88.5904ZM101.438 34.6V43H99.4943V39.556H95.6783V43H93.7343V34.6H95.6783V37.912H99.4943V34.6H101.438ZM107.458 40.024V43H105.514V40L102.262 34.6H104.326L106.57 38.332L108.814 34.6H110.722L107.458 40.024Z" fill="white"/>
<rect x="4" y="5" width="1" height="13" fill="white"/>
<rect y="2" width="2" height="18" fill="white"/>
<rect x="120" y="35" width="2" height="18" fill="white"/>
<path d="M103 55L103 53L122 53L122 55L103 55Z" fill="white"/>
<rect y="2" width="2" height="19" transform="rotate(-90 0 2)" fill="white"/>
<rect x="17" y="4" width="1" height="13" transform="rotate(90 17 4)" fill="white"/>
<rect x="117" y="37" width="1" height="13" fill="white"/>
<rect x="105" y="51" width="0.999999" height="13" transform="rotate(-90 105 51)" fill="white"/>
</svg>
