<svg width="176" height="119" viewBox="0 0 176 119" fill="none" xmlns="http://www.w3.org/2000/svg">
<path d="M69.977 11.3V75H52.323L28.117 46.062V75H7.187V11.3H24.841L49.047 40.238V11.3H69.977ZM137.2 75L137.018 45.971L123.186 69.267H113.722L99.8897 46.972V75H80.3247V11.3H97.9787L118.727 45.243L138.929 11.3H156.583L156.765 75H137.2Z" fill="white"/>
<path d="M13.2937 97.4C14.4097 97.4 15.3757 97.586 16.1917 97.958C17.0197 98.33 17.6557 98.858 18.0997 99.542C18.5437 100.226 18.7657 101.036 18.7657 101.972C18.7657 102.896 18.5437 103.706 18.0997 104.402C17.6557 105.086 17.0197 105.614 16.1917 105.986C15.3757 106.346 14.4097 106.526 13.2937 106.526H10.7557V110H7.8397V97.4H13.2937ZM13.1317 104.15C14.0077 104.15 14.6737 103.964 15.1297 103.592C15.5857 103.208 15.8137 102.668 15.8137 101.972C15.8137 101.264 15.5857 100.724 15.1297 100.352C14.6737 99.968 14.0077 99.776 13.1317 99.776H10.7557V104.15H13.1317ZM32.4035 97.4V110H29.4875V104.834H23.7635V110H20.8475V97.4H23.7635V102.368H29.4875V97.4H32.4035ZM41.4866 110.216C40.1786 110.216 38.9966 109.934 37.9406 109.37C36.8966 108.806 36.0746 108.032 35.4746 107.048C34.8866 106.052 34.5926 104.936 34.5926 103.7C34.5926 102.464 34.8866 101.354 35.4746 100.37C36.0746 99.374 36.8966 98.594 37.9406 98.03C38.9966 97.466 40.1786 97.184 41.4866 97.184C42.7946 97.184 43.9706 97.466 45.0146 98.03C46.0586 98.594 46.8806 99.374 47.4806 100.37C48.0806 101.354 48.3806 102.464 48.3806 103.7C48.3806 104.936 48.0806 106.052 47.4806 107.048C46.8806 108.032 46.0586 108.806 45.0146 109.37C43.9706 109.934 42.7946 110.216 41.4866 110.216ZM41.4866 107.732C42.2306 107.732 42.9026 107.564 43.5026 107.228C44.1026 106.88 44.5706 106.4 44.9066 105.788C45.2546 105.176 45.4286 104.48 45.4286 103.7C45.4286 102.92 45.2546 102.224 44.9066 101.612C44.5706 101 44.1026 100.526 43.5026 100.19C42.9026 99.842 42.2306 99.668 41.4866 99.668C40.7426 99.668 40.0706 99.842 39.4706 100.19C38.8706 100.526 38.3966 101 38.0486 101.612C37.7126 102.224 37.5446 102.92 37.5446 103.7C37.5446 104.48 37.7126 105.176 38.0486 105.788C38.3966 106.4 38.8706 106.88 39.4706 107.228C40.0706 107.564 40.7426 107.732 41.4866 107.732ZM53.0063 99.776H48.9743V97.4H59.9543V99.776H55.9223V110H53.0063V99.776ZM67.4495 110.216C66.1415 110.216 64.9595 109.934 63.9035 109.37C62.8595 108.806 62.0375 108.032 61.4375 107.048C60.8495 106.052 60.5555 104.936 60.5555 103.7C60.5555 102.464 60.8495 101.354 61.4375 100.37C62.0375 99.374 62.8595 98.594 63.9035 98.03C64.9595 97.466 66.1415 97.184 67.4495 97.184C68.7575 97.184 69.9335 97.466 70.9775 98.03C72.0215 98.594 72.8435 99.374 73.4435 100.37C74.0435 101.354 74.3435 102.464 74.3435 103.7C74.3435 104.936 74.0435 106.052 73.4435 107.048C72.8435 108.032 72.0215 108.806 70.9775 109.37C69.9335 109.934 68.7575 110.216 67.4495 110.216ZM67.4495 107.732C68.1935 107.732 68.8655 107.564 69.4655 107.228C70.0655 106.88 70.5335 106.4 70.8695 105.788C71.2175 105.176 71.3915 104.48 71.3915 103.7C71.3915 102.92 71.2175 102.224 70.8695 101.612C70.5335 101 70.0655 100.526 69.4655 100.19C68.8655 99.842 68.1935 99.668 67.4495 99.668C66.7055 99.668 66.0335 99.842 65.4335 100.19C64.8335 100.526 64.3595 101 64.0115 101.612C63.6755 102.224 63.5075 102.92 63.5075 103.7C63.5075 104.48 63.6755 105.176 64.0115 105.788C64.3595 106.4 64.8335 106.88 65.4335 107.228C66.0335 107.564 66.7055 107.732 67.4495 107.732ZM85.049 103.502H87.713V108.614C87.029 109.13 86.237 109.526 85.337 109.802C84.437 110.078 83.531 110.216 82.619 110.216C81.311 110.216 80.135 109.94 79.091 109.388C78.047 108.824 77.225 108.05 76.625 107.066C76.037 106.07 75.743 104.948 75.743 103.7C75.743 102.452 76.037 101.336 76.625 100.352C77.225 99.356 78.053 98.582 79.109 98.03C80.165 97.466 81.353 97.184 82.673 97.184C83.777 97.184 84.779 97.37 85.679 97.742C86.579 98.114 87.335 98.654 87.947 99.362L86.075 101.09C85.175 100.142 84.089 99.668 82.817 99.668C82.013 99.668 81.299 99.836 80.675 100.172C80.051 100.508 79.565 100.982 79.217 101.594C78.869 102.206 78.695 102.908 78.695 103.7C78.695 104.48 78.869 105.176 79.217 105.788C79.565 106.4 80.045 106.88 80.657 107.228C81.281 107.564 81.989 107.732 82.781 107.732C83.621 107.732 84.377 107.552 85.049 107.192V103.502ZM98.4497 110L96.0197 106.49H95.8757H93.3377V110H90.4217V97.4H95.8757C96.9917 97.4 97.9577 97.586 98.7737 97.958C99.6017 98.33 100.238 98.858 100.682 99.542C101.126 100.226 101.348 101.036 101.348 101.972C101.348 102.908 101.12 103.718 100.664 104.402C100.22 105.074 99.5837 105.59 98.7557 105.95L101.582 110H98.4497ZM98.3957 101.972C98.3957 101.264 98.1677 100.724 97.7117 100.352C97.2557 99.968 96.5897 99.776 95.7137 99.776H93.3377V104.168H95.7137C96.5897 104.168 97.2557 103.976 97.7117 103.592C98.1677 103.208 98.3957 102.668 98.3957 101.972ZM111.956 107.3H106.106L104.99 110H102.002L107.618 97.4H110.498L116.132 110H113.072L111.956 107.3ZM111.038 105.086L109.04 100.262L107.042 105.086H111.038ZM122.893 97.4C124.009 97.4 124.975 97.586 125.791 97.958C126.619 98.33 127.255 98.858 127.699 99.542C128.143 100.226 128.365 101.036 128.365 101.972C128.365 102.896 128.143 103.706 127.699 104.402C127.255 105.086 126.619 105.614 125.791 105.986C124.975 106.346 124.009 106.526 122.893 106.526H120.355V110H117.439V97.4H122.893ZM122.731 104.15C123.607 104.15 124.273 103.964 124.729 103.592C125.185 103.208 125.413 102.668 125.413 101.972C125.413 101.264 125.185 100.724 124.729 100.352C124.273 99.968 123.607 99.776 122.731 99.776H120.355V104.15H122.731ZM142.003 97.4V110H139.087V104.834H133.363V110H130.447V97.4H133.363V102.368H139.087V97.4H142.003ZM151.032 105.536V110H148.116V105.5L143.238 97.4H146.334L149.7 102.998L153.066 97.4H155.928L151.032 105.536Z" fill="white"/>
<rect x="7" y="85" width="150" height="4" fill="white"/>
</svg>
