<svg width="72" height="70" viewBox="0 0 72 70" fill="none" xmlns="http://www.w3.org/2000/svg">
<path d="M69.8906 0H2.10938C0.944437 0 0 0.918203 0 2.05078V61.3595V67.9492C0 69.0818 0.944437 70 2.10938 70H69.8906C71.0557 70 72 69.0818 72 67.9492V61.3595V2.05078C72 0.918203 71.0557 0 69.8906 0ZM67.7812 55.6951L54.5657 40.2771C54.2039 39.8547 53.6828 39.5914 53.1194 39.546C52.5558 39.5005 51.9974 39.6771 51.569 40.0358L41.2082 48.7087L22.9435 27.1079C22.5021 26.5859 21.824 26.3089 21.1324 26.367C20.44 26.4253 19.8215 26.8112 19.4788 27.3993L4.21875 53.5808V4.10156H67.7812V55.6951Z" fill="#2B2B2B"/>
<path d="M49.5563 13.1797C44.6558 13.1797 40.6689 17.0559 40.6689 21.8203C40.6689 26.5847 44.6559 30.4611 49.5563 30.4611C54.4569 30.4611 58.4437 26.5848 58.4437 21.8204C58.4437 17.0561 54.4569 13.1797 49.5563 13.1797Z" fill="#2B2B2B"/>
</svg>
