<svg width="39" height="39" viewBox="0 0 39 39" fill="none" xmlns="http://www.w3.org/2000/svg">
<path d="M36.8684 11.6604C36.7761 11.6068 36.6713 11.5784 36.5646 11.5781C36.4579 11.5777 36.3529 11.6054 36.2603 11.6584L28.6406 16.0124V14.0156C28.639 12.5616 28.0607 11.1675 27.0325 10.1394C26.0043 9.1112 24.6103 8.53286 23.1562 8.53125H3.65625C3.17156 8.53177 2.70688 8.72455 2.36415 9.06727C2.02142 9.41 1.82865 9.87469 1.82812 10.3594V24.9844C1.82974 26.4384 2.40807 27.8325 3.43624 28.8606C4.46441 29.8888 5.85845 30.4671 7.3125 30.4688H26.8125C27.2972 30.4682 27.7619 30.2755 28.1046 29.9327C28.4473 29.59 28.6401 29.1253 28.6406 28.6406V22.9875L36.2603 27.3414C36.3529 27.3944 36.4578 27.422 36.5646 27.4217C36.6713 27.4213 36.776 27.3929 36.8683 27.3394C36.9606 27.2858 37.0372 27.209 37.0905 27.1165C37.1438 27.024 37.1718 26.9192 37.1719 26.8125V12.1875C37.1719 12.0808 37.1439 11.9759 37.0906 11.8834C37.0373 11.7909 36.9607 11.714 36.8684 11.6604ZM27.4219 28.6406C27.4217 28.8022 27.3575 28.9571 27.2432 29.0713C27.129 29.1856 26.9741 29.2498 26.8125 29.25H7.3125C6.18157 29.2488 5.09732 28.7989 4.29763 27.9992C3.49794 27.1996 3.04813 26.1153 3.04688 24.9844V10.3594C3.04704 10.1978 3.11129 10.0429 3.22554 9.92866C3.33978 9.81442 3.49468 9.75016 3.65625 9.75H23.1562C24.2872 9.75125 25.3714 10.2011 26.1711 11.0008C26.9708 11.8004 27.4206 12.8847 27.4219 14.0156V28.6406ZM35.9531 25.7624L28.6406 21.5839V17.4161L35.9531 13.2376V25.7624Z" fill="#3F3F3F"/>
</svg>
